



Plot:
Chill Out, Scooby-Doo! is the eleventh Scooby-Doo direct-to-video film series, produced by Warner Bros. Animation. It is a semi-remake of the classic Scooby episodes, That's Snow Ghost!, The Ghost of Bigfoot, and There's No Creature Like Snow Creature, except it takes place in the Himalayas and features the Abominable Snowman.


Video Description:
Format : AVI
Format/Info : Audio Video Interleave
File size : 601 MiB
Duration : 1h 9mn
Overall bit rate : 1 205 Kbps

Video
ID : 0
Format : MPEG-4 Visual
Format profile : Simple@L1
Format settings, BVOP : No
Format settings, QPel : No
Format settings, GMC : No warppoints
Format settings, Matrix : Default (H.263)
Codec ID : DIVX
Codec ID/Info : Project Mayo
Codec ID/Hint : DivX 4
Duration : 1h 9mn
Bit rate : 1 000 Kbps
Width : 720 pixels
Height : 576 pixels
Display aspect ratio : 16:9
Frame rate : 25.000 fps
Standard : PAL
Color space : YUV
Chroma subsampling : 4:2:0
Bit depth : 8 bits
Scan type : Progressive
Bits/(Pixel*Frame) : 0.096
Stream size : 499 MiB (83%)
Writing library : Lavc51.9.0

Audio
ID : 1
Format : MPEG Audio
Format version : Version 1
Format profile : Layer 3
Mode : Joint stereo
Codec ID : 55
Codec ID/Hint : MP3
Duration : 1h 9mn
Bit rate mode : Constant
Bit rate : 192 Kbps
Channel(s) : 2 channels
Sampling rate : 48.0 KHz
Stream size : 95.8 MiB (16%)
Alignment : Aligned on interleaves
Interleave, duration : 24 ms (0.60 video frame)

Screenshots:






More Info Here 
http://www.imdb.com/title/tt1097636/

Trailer 
http://www.youtube.com/watch?v=pHnhS55WEIE


Another Sledgeka Quality DVR rip.. Rock on Dudes!! 